<?xml version="1.0" encoding="utf-8"?>
<!-- Generator: Adobe Illustrator 22.0.1, SVG Export Plug-In . SVG Version: 6.00 Build 0)  -->
<svg version="1.1" id="Слой_1" xmlns="http://www.w3.org/2000/svg" xmlns:xlink="http://www.w3.org/1999/xlink" x="0px" y="0px"
	 viewBox="0 0 120 120" style="enable-background:new 0 0 120 120;" xml:space="preserve">
<style type="text/css">
	.st0{fill:#FFFFFF;}
</style>
<path class="st0" d="M111.1,36.8H8.9c-2.6,0-4.8-2.2-4.8-4.8v-4c0-2.6,2.2-4.8,4.8-4.8h102.2c2.6,0,4.8,2.2,4.8,4.8v4
	C115.9,34.6,113.7,36.8,111.1,36.8z"/>
<path class="st0" d="M111.1,66.8H8.9c-2.6,0-4.8-2.2-4.8-4.8v-4c0-2.6,2.2-4.8,4.8-4.8h102.2c2.6,0,4.8,2.2,4.8,4.8v4
	C115.9,64.6,113.7,66.8,111.1,66.8z"/>
<path class="st0" d="M111.1,96.8H8.9c-2.6,0-4.8-2.2-4.8-4.8v-4c0-2.6,2.2-4.8,4.8-4.8h102.2c2.6,0,4.8,2.2,4.8,4.8v4
	C115.9,94.6,113.7,96.8,111.1,96.8z"/>
</svg>
